# xmcd
#
# Track frame offsets:
# 150
# 14365
# 29795
# 41641
# 54891
# 70708
# 83310
# 95706
# 112407
# 127321
#
# Disc length: 1858 seconds
#
#
# Revision: 0
# Processed by: cddbd v1.5.2PL0 Copyright (c) Steve Scherf et al.
# Submitted via: FreeRIP 2.951 
#
DISCID=8907400a
DTITLE=Kjell Christers  - Kjell Christers
DYEAR=1999
DGENRE=Dansband
TTITLE0=Kjell Christers - Nära mig
TTITLE1=Kjell Christers - Störst av allt är ändå kärleken
TTITLE2=Kjell Christers - Hela hela dig
TTITLE3=Kjell Christers - Atlantis
TTITLE4=Kjell Christers - Birka Princess
TTITLE5=Kjell Christers - Om Änglar finns
TTITLE6=Kjell Christers - Om du nånsin kommer fram till Samarkand
TTITLE7=Kjell Christers - Women in love
TTITLE8=Kjell Christers - Höstguld
TTITLE9=Kjell Christers - Jazzbacillen
EXTD=
EXTT0=
EXTT1=
EXTT2=
EXTT3=
EXTT4=
EXTT5=
EXTT6=
EXTT7=
EXTT8=
EXTT9=
PLAYORDER=
